<svg xmlns="http://www.w3.org/2000/svg" xmlns:xlink="http://www.w3.org/1999/xlink" width="250" zoomAndPan="magnify" viewBox="0 0 187.5 187.499992" height="250" preserveAspectRatio="xMidYMid meet" version="1.0"><defs><clipPath id="4dd1c1a26a"><path d="M 2.996094 67.441406 L 184.515625 67.441406 L 184.515625 119.9375 L 2.996094 119.9375 Z M 2.996094 67.441406 " clip-rule="nonzero"/></clipPath></defs><g clip-path="url(#4dd1c1a26a)"><path fill="#ccccc9" d="M 5.300781 79.359375 C 15.007812 85.863281 65.15625 101.234375 65.453125 84.777344 C 65.488281 82.867188 65.269531 80.695312 64.78125 78.707031 Z M 63.902344 76.003906 L 8.855469 76.597656 C 7.519531 76.617188 5.738281 76.507812 4.476562 76.804688 C 2.285156 77.3125 3.15625 79.765625 3.230469 79.609375 C 3.542969 78.972656 4.238281 78.503906 5.199219 78.492188 L 64.554688 77.847656 C 64.367188 77.199219 64.148438 76.578125 63.902344 76.003906 Z M 68.125 75.640625 C 69.007812 75.640625 69.726562 76.359375 69.726562 77.246094 C 69.726562 78.128906 69.007812 78.847656 68.125 78.847656 C 67.238281 78.847656 66.523438 78.128906 66.523438 77.246094 C 66.523438 76.359375 67.238281 75.640625 68.125 75.640625 Z M 67.917969 76.238281 C 68.484375 76.238281 68.941406 76.695312 68.941406 77.261719 C 68.941406 77.828125 68.484375 78.289062 67.917969 78.289062 C 67.351562 78.289062 66.890625 77.828125 66.890625 77.261719 C 66.890625 76.695312 67.351562 76.238281 67.917969 76.238281 Z M 124.101562 106.699219 C 114.125 101.375 112.917969 94.65625 121.582031 86.761719 C 136.304688 73.359375 175.171875 68.589844 184.515625 67.855469 C 174.027344 67.578125 140.378906 67.628906 124.488281 67.445312 C 107.019531 67.253906 99.960938 70.847656 93.050781 84.265625 C 92.355469 85.621094 91.710938 87.054688 91.019531 88.464844 C 89.769531 91.054688 87.25 95.617188 84.0625 97.398438 C 81.863281 98.628906 78.585938 98.734375 78.25 95.074219 C 78.109375 93.550781 78.4375 91.644531 79.113281 89.816406 C 79.460938 88.851562 79.722656 88.132812 79.792969 87.9375 C 81.300781 83.644531 81.597656 78.230469 77.488281 75.257812 C 74.058594 72.769531 68.691406 73.203125 64.609375 75.75 C 65.855469 78.558594 66.382812 82.488281 66.191406 85.535156 C 66.054688 87.628906 65.652344 89.558594 65.1875 91.394531 C 61.671875 105.140625 67.382812 113.054688 76.554688 116.710938 C 83.980469 119.671875 91.976562 119.546875 99.757812 118.464844 C 101.667969 118.195312 103.597656 117.894531 105.640625 117.625 C 116.980469 116.132812 132.433594 117.136719 143.867188 119.9375 C 144.121094 120 140.53125 116.632812 135.695312 113.339844 C 131.703125 110.625 126.644531 108.050781 124.101562 106.699219 " fill-opacity="1" fill-rule="evenodd"/></g></svg>